<svg width="155" height="17" viewBox="0 0 155 17" fill="none" xmlns="http://www.w3.org/2000/svg">
<mask id="mask0_911_1572" style="mask-type:alpha" maskUnits="userSpaceOnUse" x="84" y="0" width="30" height="15">
<path d="M97.0692 3.14343H101.03L105.595 10.5961L109.651 0.349182H113.75L107.702 14.5601H104.112L99.0614 6.12045H99.0137L93.9915 14.5601H90.3769L84.3525 0.349182H88.4284L92.5082 10.5961L97.0692 3.14343Z" fill="white"/>
</mask>
<g mask="url(#mask0_911_1572)">
<rect x="57.541" y="-1.06195" width="99.484" height="16.9334" fill="#FF3864"/>
</g>
<mask id="mask1_911_1572" style="mask-type:alpha" maskUnits="userSpaceOnUse" x="114" y="0" width="4" height="15">
<path d="M114.633 14.5601V0.349182H117.795V14.556H114.633V14.5601Z" fill="white"/>
</mask>
<g mask="url(#mask1_911_1572)">
<rect x="84.5234" y="-0.931763" width="73.2661" height="16.6514" fill="#FF3864"/>
</g>
<mask id="mask2_911_1572" style="mask-type:alpha" maskUnits="userSpaceOnUse" x="138" y="0" width="17" height="15">
<path d="M154.203 0.519669V3.29361H145.677V6.1894H153.392V8.90242H145.677V11.7373H154.203V14.5315C148.898 14.5559 143.594 14.5803 138.285 14.6087C138.866 14.4584 140.691 13.9061 142.055 12.0947C143.423 10.2792 143.459 8.35007 143.462 7.64338C143.466 6.9895 143.443 4.88162 141.928 2.94433C140.607 1.25478 138.917 0.674002 138.289 0.4953C143.598 0.503423 148.902 0.511546 154.203 0.519669ZM144.902 1.63656C145.427 2.53007 146.493 4.60139 146.528 7.45656C146.564 10.4579 145.443 12.6389 144.922 13.5324" fill="white"/>
</mask>
<g mask="url(#mask2_911_1572)">
<rect x="83.8401" y="-0.846313" width="74.547" height="16.6514" fill="#FF3864"/>
</g>
<mask id="mask3_911_1572" style="mask-type:alpha" maskUnits="userSpaceOnUse" x="119" y="0" width="24" height="15">
<path d="M133.187 0.349182C139.152 0.349182 142.516 2.97692 142.516 7.45259V7.4729C142.516 11.9283 139.152 14.556 133.187 14.556H119.035V0.349182H133.187ZM122.884 11.6034H132.889C136.5 11.6034 138.241 10.0844 138.241 7.47696V7.45665C138.241 4.82892 136.496 3.28964 132.889 3.28964H122.884V11.6034Z" fill="white"/>
<path d="M138.401 1.92104C138.739 5.36105 139.077 8.80107 139.415 12.2451C135.732 12.9559 132.05 13.6626 128.368 14.3733C124.825 14.8688 121.54 13.5895 120.001 11.0511C119.21 9.74738 119.051 8.39087 119.047 7.44862V7.42831C119.047 6.49013 119.202 5.10925 120.013 3.78929C121.568 1.26309 124.873 0.012172 128.416 0.564524C131.748 1.01534 135.076 1.46616 138.401 1.92104ZM138.683 3.25724H128.678C125.067 3.25724 123.322 4.80058 123.322 7.42831V7.44862C123.322 10.056 125.067 11.575 128.674 11.575H138.679V3.25724H138.683Z" fill="white"/>
</mask>
<g mask="url(#mask3_911_1572)">
<rect x="82.6448" y="-0.931763" width="73.2661" height="16.6514" fill="#FF3864"/>
</g>
<path d="M1.02269 14V3.63133H4.91094C5.70749 3.63133 6.37579 3.77984 6.91582 4.07686C7.45923 4.37388 7.86932 4.78228 8.14609 5.30206C8.42623 5.81847 8.5663 6.40576 8.5663 7.06393C8.5663 7.72884 8.42623 8.31951 8.14609 8.83592C7.86595 9.35232 7.45248 9.75904 6.9057 10.0561C6.35891 10.3497 5.68556 10.4965 4.88563 10.4965H2.30865V8.95236H4.63249C5.09827 8.95236 5.47967 8.87136 5.77669 8.70935C6.07371 8.54733 6.29309 8.32457 6.43485 8.04105C6.57999 7.75753 6.65256 7.43183 6.65256 7.06393C6.65256 6.69603 6.57999 6.37201 6.43485 6.09186C6.29309 5.81172 6.07202 5.59402 5.77162 5.43876C5.4746 5.28012 5.09152 5.20081 4.62236 5.20081H2.901V14H1.02269ZM13.3975 14.1519C12.6381 14.1519 11.9799 13.9848 11.423 13.6507C10.8661 13.3165 10.4341 12.8491 10.1269 12.2483C9.82315 11.6475 9.67127 10.9454 9.67127 10.1421C9.67127 9.33882 9.82315 8.63509 10.1269 8.03093C10.4341 7.42676 10.8661 6.95761 11.423 6.62346C11.9799 6.28931 12.6381 6.12224 13.3975 6.12224C14.1569 6.12224 14.8151 6.28931 15.372 6.62346C15.9289 6.95761 16.3593 7.42676 16.663 8.03093C16.9702 8.63509 17.1237 9.33882 17.1237 10.1421C17.1237 10.9454 16.9702 11.6475 16.663 12.2483C16.3593 12.8491 15.9289 13.3165 15.372 13.6507C14.8151 13.9848 14.1569 14.1519 13.3975 14.1519ZM13.4076 12.6837C13.8194 12.6837 14.1637 12.5706 14.4404 12.3445C14.7172 12.1149 14.9231 11.8078 15.0581 11.423C15.1965 11.0382 15.2657 10.6096 15.2657 10.1371C15.2657 9.66116 15.1965 9.23082 15.0581 8.84604C14.9231 8.45789 14.7172 8.14906 14.4404 7.91954C14.1637 7.69003 13.8194 7.57527 13.4076 7.57527C12.9857 7.57527 12.6347 7.69003 12.3546 7.91954C12.0778 8.14906 11.8702 8.45789 11.7318 8.84604C11.5968 9.23082 11.5293 9.66116 11.5293 10.1371C11.5293 10.6096 11.5968 11.0382 11.7318 11.423C11.8702 11.8078 12.0778 12.1149 12.3546 12.3445C12.6347 12.5706 12.9857 12.6837 13.4076 12.6837ZM20.0615 14L17.8642 6.2235H19.7324L21.0993 11.6914H21.1702L22.5676 6.2235H24.4155L25.8128 11.661H25.8888L27.2355 6.2235H29.1087L26.9064 14H24.9977L23.5396 8.74479H23.4333L21.9752 14H20.0615ZM33.6083 14.1519C32.8286 14.1519 32.1553 13.9899 31.5882 13.6659C31.0246 13.3385 30.5909 12.8761 30.2871 12.2786C29.9833 11.6778 29.8314 10.9707 29.8314 10.1573C29.8314 9.35739 29.9833 8.65534 30.2871 8.05118C30.5942 7.44364 31.0229 6.97111 31.5731 6.63359C32.1232 6.29269 32.7696 6.12224 33.5121 6.12224C33.9914 6.12224 34.4437 6.19987 34.869 6.35513C35.2976 6.50702 35.6756 6.74328 36.003 7.06393C36.3338 7.38457 36.5937 7.79297 36.7827 8.28913C36.9717 8.78191 37.0662 9.3692 37.0662 10.051V10.613H30.6921V9.37764H35.3094C35.306 9.02662 35.2301 8.71441 35.0816 8.44102C34.9331 8.16425 34.7255 7.94655 34.4589 7.78791C34.1956 7.62928 33.8885 7.54996 33.5374 7.54996C33.1628 7.54996 32.8337 7.64109 32.5502 7.82335C32.2667 8.00224 32.0456 8.2385 31.887 8.53215C31.7317 8.82242 31.6524 9.14137 31.649 9.48902V10.5674C31.649 11.0197 31.7317 11.4078 31.8971 11.7319C32.0625 12.0525 32.2937 12.2989 32.5907 12.471C32.8877 12.6398 33.2354 12.7242 33.6336 12.7242C33.9003 12.7242 34.1416 12.687 34.3576 12.6128C34.5736 12.5352 34.7609 12.4221 34.9196 12.2736C35.0782 12.1251 35.198 11.9411 35.279 11.7217L36.9903 11.9141C36.8823 12.3664 36.6764 12.7613 36.3726 13.0988C36.0722 13.433 35.6874 13.6929 35.2183 13.8785C34.7491 14.0608 34.2125 14.1519 33.6083 14.1519ZM38.6167 14V6.2235H40.3938V7.51958H40.4748C40.6165 7.07068 40.8595 6.72472 41.2038 6.4817C41.5515 6.23531 41.9481 6.11211 42.3936 6.11211C42.4948 6.11211 42.6079 6.11718 42.7328 6.1273C42.8611 6.13405 42.9674 6.14587 43.0518 6.16274V7.84866C42.9741 7.82166 42.8509 7.79804 42.6822 7.77778C42.5168 7.75416 42.3565 7.74235 42.2012 7.74235C41.8671 7.74235 41.5667 7.81491 41.3 7.96005C41.0367 8.10181 40.8292 8.29926 40.6773 8.5524C40.5254 8.80554 40.4495 9.0975 40.4495 9.42827V14H38.6167ZM47.3919 14.1519C46.6122 14.1519 45.9388 13.9899 45.3718 13.6659C44.8081 13.3385 44.3744 12.8761 44.0706 12.2786C43.7669 11.6778 43.615 10.9707 43.615 10.1573C43.615 9.35739 43.7669 8.65534 44.0706 8.05118C44.3778 7.44364 44.8064 6.97111 45.3566 6.63359C45.9068 6.29269 46.5531 6.12224 47.2957 6.12224C47.7749 6.12224 48.2272 6.19987 48.6525 6.35513C49.0812 6.50702 49.4592 6.74328 49.7866 7.06393C50.1173 7.38457 50.3772 7.79297 50.5663 8.28913C50.7553 8.78191 50.8498 9.3692 50.8498 10.051V10.613H44.4757V9.37764H49.093C49.0896 9.02662 49.0137 8.71441 48.8651 8.44102C48.7166 8.16425 48.5091 7.94655 48.2424 7.78791C47.9791 7.62928 47.672 7.54996 47.321 7.54996C46.9463 7.54996 46.6172 7.64109 46.3337 7.82335C46.0502 8.00224 45.8291 8.2385 45.6705 8.53215C45.5152 8.82242 45.4359 9.14137 45.4325 9.48902V10.5674C45.4325 11.0197 45.5152 11.4078 45.6806 11.7319C45.846 12.0525 46.0772 12.2989 46.3742 12.471C46.6712 12.6398 47.0189 12.7242 47.4172 12.7242C47.6838 12.7242 47.9251 12.687 48.1412 12.6128C48.3572 12.5352 48.5445 12.4221 48.7031 12.2736C48.8618 12.1251 48.9816 11.9411 49.0626 11.7217L50.7738 11.9141C50.6658 12.3664 50.4599 12.7613 50.1562 13.0988C49.8558 13.433 49.471 13.6929 49.0018 13.8785C48.5327 14.0608 47.996 14.1519 47.3919 14.1519ZM55.2861 14.1367C54.6752 14.1367 54.1284 13.9797 53.6457 13.6659C53.1631 13.352 52.7817 12.8963 52.5015 12.2989C52.2214 11.7015 52.0813 10.9758 52.0813 10.1219C52.0813 9.25782 52.2231 8.52877 52.5066 7.93473C52.7935 7.33732 53.1799 6.88673 53.666 6.58296C54.152 6.27581 54.6937 6.12224 55.2911 6.12224C55.7468 6.12224 56.1214 6.19987 56.4151 6.35513C56.7087 6.50702 56.9416 6.69096 57.1138 6.90698C57.2859 7.11962 57.4192 7.32044 57.5137 7.50946H57.5897V3.63133H59.4275V14H57.6251V12.7748H57.5137C57.4192 12.9638 57.2825 13.1646 57.1036 13.3773C56.9247 13.5865 56.6885 13.7654 56.3948 13.9139C56.1012 14.0624 55.7316 14.1367 55.2861 14.1367ZM55.7974 12.633C56.1856 12.633 56.5163 12.5284 56.7897 12.3191C57.0631 12.1065 57.2707 11.8112 57.4125 11.4331C57.5542 11.0551 57.6251 10.6147 57.6251 10.1117C57.6251 9.60884 57.5542 9.17175 57.4125 8.80048C57.2741 8.4292 57.0682 8.14062 56.7948 7.93473C56.5248 7.72884 56.1923 7.6259 55.7974 7.6259C55.389 7.6259 55.0481 7.73222 54.7747 7.94486C54.5013 8.1575 54.2954 8.45114 54.1571 8.82579C54.0187 9.20044 53.9495 9.62909 53.9495 10.1117C53.9495 10.5978 54.0187 11.0315 54.1571 11.4129C54.2988 11.7909 54.5064 12.0896 54.7798 12.309C55.0566 12.525 55.3958 12.633 55.7974 12.633ZM64.9978 14V3.63133H66.8306V7.50946H66.9065C67.001 7.32044 67.1344 7.11962 67.3065 6.90698C67.4786 6.69096 67.7115 6.50702 68.0052 6.35513C68.2988 6.19987 68.6735 6.12224 69.1291 6.12224C69.7299 6.12224 70.2716 6.27581 70.7543 6.58296C71.2403 6.88673 71.6251 7.33732 71.9086 7.93473C72.1955 8.52877 72.3389 9.25782 72.3389 10.1219C72.3389 10.9758 72.1989 11.7015 71.9187 12.2989C71.6386 12.8963 71.2572 13.352 70.7745 13.6659C70.2919 13.9797 69.7451 14.1367 69.1342 14.1367C68.6886 14.1367 68.3191 14.0624 68.0254 13.9139C67.7318 13.7654 67.4955 13.5865 67.3166 13.3773C67.1411 13.1646 67.0044 12.9638 66.9065 12.7748H66.8002V14H64.9978ZM66.7951 10.1117C66.7951 10.6147 66.866 11.0551 67.0078 11.4331C67.1529 11.8112 67.3605 12.1065 67.6305 12.3191C67.9039 12.5284 68.2347 12.633 68.6228 12.633C69.0279 12.633 69.3671 12.525 69.6405 12.309C69.9138 12.0896 70.1197 11.7909 70.2581 11.4129C70.3999 11.0315 70.4708 10.5978 70.4708 10.1117C70.4708 9.62909 70.4016 9.20044 70.2632 8.82579C70.1248 8.45114 69.9189 8.1575 69.6455 7.94486C69.3721 7.73222 69.0312 7.6259 68.6228 7.6259C68.2313 7.6259 67.8988 7.72884 67.6254 7.93473C67.3521 8.14062 67.1445 8.4292 67.0027 8.80048C66.8643 9.17175 66.7951 9.60884 66.7951 10.1117ZM74.7716 16.9162C74.5219 16.9162 74.2907 16.8959 74.078 16.8554C73.8688 16.8183 73.7017 16.7744 73.5768 16.7238L74.0021 15.2961C74.2687 15.3737 74.5067 15.4108 74.7159 15.4075C74.9252 15.4041 75.1092 15.3383 75.2678 15.21C75.4298 15.0851 75.5665 14.8759 75.6779 14.5822L75.8348 14.162L73.0148 6.2235H74.959L76.7512 12.0964H76.8322L78.6295 6.2235H80.5787L77.4651 14.9417C77.3199 15.3535 77.1275 15.7062 76.8879 15.9998C76.6483 16.2968 76.3546 16.523 76.007 16.6782C75.6627 16.8369 75.2509 16.9162 74.7716 16.9162Z" fill="#FF3864"/>
</svg>
