<svg width="203" height="54" viewBox="0 0 203 54" fill="none" xmlns="http://www.w3.org/2000/svg">
<path d="M2.34481 1.09573C4.05373 1.61308 5.76266 2.15031 7.47158 2.66765C8.64398 3.02581 9.81639 3.36407 10.9689 3.78193C11.3663 3.92121 11.7836 4.15998 12.0817 4.45845C16.8111 9.1742 21.5205 13.89 26.2499 18.6256C26.7864 19.1629 26.7864 19.1629 27.3229 18.6256C28.6146 17.3323 29.9261 16.019 31.2177 14.7257C34.7747 11.2038 38.3117 7.66198 41.8687 4.15998C42.127 3.90131 42.5443 3.74213 42.902 3.62274C45.4654 2.80694 48.0486 2.01103 50.6319 1.21512C50.8505 1.15543 51.0691 1.11563 51.4069 1.03604C51.1684 1.83195 50.9498 2.52837 50.7312 3.22479C50.0556 5.41354 49.38 7.58239 48.6646 9.77114C48.5454 10.1293 48.3268 10.4875 48.0486 10.766C43.2795 15.5614 38.5104 20.3368 33.7215 25.1322C33.2048 25.6495 33.2048 25.6495 33.7215 26.1668C35.9868 28.4352 38.272 30.7234 40.5373 32.9918C41.0142 33.4693 41.1533 33.4494 41.4116 32.8525C42.2661 30.9423 42.8424 28.9724 42.8424 26.8633C42.8424 26.4056 43.0013 26.2066 43.4783 26.2066C44.293 26.2265 45.1077 26.2066 45.9025 26.2066C46.1807 26.2066 46.4192 26.2663 46.3795 26.6046C46.2602 27.7587 46.2006 28.9127 45.982 30.0469C45.4256 32.753 44.3526 35.2601 42.6635 37.4687C42.3456 37.8866 42.3853 38.1453 42.743 38.5034C46.1807 41.9059 49.5986 45.3482 53.0164 48.7706C53.553 49.3079 53.5331 49.3477 52.9767 49.8451C52.2812 50.5017 51.6056 51.1783 50.9498 51.8946C50.4729 52.4119 50.4332 52.4318 49.9364 51.9543C46.5185 48.5319 43.1007 45.1095 39.6828 41.6871C39.1463 41.1498 39.1463 41.1498 38.5104 41.6075C35.9272 43.4381 33.0657 44.5722 29.9062 44.9901C29.2902 45.0697 28.6543 45.0697 28.0184 45.1095C27.6011 45.1493 27.4024 44.9901 27.4223 44.5523C27.4422 43.7763 27.4422 43.0003 27.4223 42.2243C27.4223 41.8064 27.5813 41.6473 28.0184 41.6274C30.1049 41.6075 32.0722 41.0901 33.9599 40.2146C34.1388 40.135 34.2977 40.0157 34.5163 39.8963C34.3574 39.6973 34.2381 39.5381 34.099 39.3988C31.794 37.0907 29.4889 34.7826 27.1838 32.4545C26.846 32.1163 26.6672 32.1561 26.3493 32.4744C24.0641 34.7826 21.759 37.0708 19.4738 39.3789C18.9969 39.8565 19.0168 39.8963 19.6129 40.1947C21.5404 41.1299 23.607 41.5677 25.7332 41.7269C26.1505 41.7468 26.3294 41.9258 26.3095 42.3437C26.2896 43.0998 26.2896 43.8758 26.3095 44.6319C26.3294 45.1095 26.0909 45.2487 25.6736 45.2289C21.759 45.0299 18.1822 43.8758 15.0028 41.5279C14.4066 41.0901 14.4066 41.0901 13.9099 41.5876C10.5119 44.9901 7.1139 48.3926 3.71592 51.7951C3.15953 52.3522 3.1794 52.3323 2.60313 51.7951C2.50378 51.6956 2.38455 51.5961 2.26532 51.4966C1.96725 51.1982 0.337811 49.8451 0 49.3079C0.0198712 49.288 2.32493 46.9799 2.34481 46.96C5.246 44.0748 8.12733 41.1697 11.0285 38.2846C11.2869 38.0458 11.267 37.8269 11.0484 37.5483C9.7369 35.8968 8.8427 34.0065 8.20682 32.0168C7.67029 30.3653 7.3921 28.674 7.33248 26.9429C7.31261 26.4653 7.49145 26.3061 7.96836 26.3061C8.7036 26.326 9.45871 26.326 10.1939 26.3061C10.6311 26.2862 10.8099 26.4255 10.8298 26.8832C10.9093 28.9326 11.3862 30.8826 12.2407 32.7331C12.5189 33.33 12.5785 33.3499 13.0554 32.8724C15.3008 30.6438 17.5264 28.3954 19.7719 26.1469C20.3084 25.6097 20.3084 25.6097 19.7917 25.0725C15.0226 20.297 10.2536 15.5415 5.50433 10.766C5.30562 10.567 5.08704 10.3084 5.00755 10.0497C4.43128 8.29871 3.91463 6.54771 3.35824 4.79671C3.00056 3.68244 2.64287 2.54827 2.30506 1.434C2.34481 1.29471 2.34481 1.19522 2.34481 1.09573ZM5.68317 5.7319C5.64343 5.7518 5.60369 5.79159 5.56394 5.81149C5.9415 6.98546 6.29918 8.17932 6.6966 9.35328C6.77609 9.59206 6.99467 9.79103 7.17351 9.97011C10.035 12.7956 12.8964 15.6211 15.738 18.4465C22.3154 25.0128 28.8729 31.5989 35.4503 38.1652C36.2849 39.0009 36.3047 39.0009 37.1791 38.1851C37.6759 37.7075 37.6759 37.7075 37.1989 37.23C26.8262 26.8633 16.4534 16.4767 6.0806 6.09006C5.96137 5.95078 5.82227 5.85129 5.68317 5.7319ZM7.03442 4.37886C6.99467 4.43855 6.93506 4.49824 6.89532 4.55794C7.07416 4.67732 7.27287 4.77681 7.41197 4.93599C17.6655 15.1833 27.8992 25.4306 38.1329 35.6979C39.1264 36.6927 38.888 36.5733 39.7822 35.5586C40.0803 35.2203 40.0803 34.9417 39.7226 34.6035C30.1447 25.0128 20.5667 15.4221 10.9888 5.83139C10.8497 5.69211 10.6907 5.53292 10.5119 5.47323C9.35935 5.09517 8.20682 4.73702 7.03442 4.37886ZM46.6974 4.43855C46.6576 4.39875 46.6378 4.35896 46.598 4.29927C45.5846 4.61763 44.5513 4.93599 43.5379 5.27425C43.2398 5.37374 42.9417 5.55282 42.7033 5.7717C38.0931 10.3482 33.5029 14.9246 28.8928 19.5011C27.9986 20.3965 27.9986 20.3965 28.9126 21.3118C29.3697 21.7695 29.4094 21.7695 29.8665 21.3118C35.3509 15.82 40.8354 10.3283 46.3397 4.81661C46.4788 4.69722 46.598 4.55794 46.6974 4.43855ZM48.0884 5.81149C48.0486 5.7717 48.0089 5.7518 47.989 5.712C47.8301 5.85129 47.691 5.99057 47.532 6.12985C44.1141 9.55226 40.6963 12.9946 37.2784 16.3971C35.2118 18.4465 33.1452 20.496 31.0587 22.5455C30.7209 22.8638 30.6613 23.1026 31.0389 23.421C31.2376 23.5801 31.4164 23.7592 31.5754 23.9383C31.8933 24.3164 32.1318 24.2567 32.4696 23.9383C37.1989 19.2026 41.9283 14.467 46.6576 9.73134C46.8166 9.57216 46.9756 9.37318 47.0551 9.1742C47.3929 8.04003 47.7307 6.92576 48.0884 5.81149ZM25.5147 30.803C25.3954 30.6438 25.2961 30.4847 25.1768 30.3653C24.223 29.4301 24.382 29.2311 23.2891 30.3454C21.1629 32.4744 19.0366 34.6035 16.9104 36.7325C15.897 37.7473 15.9169 37.7274 17.0893 38.583C17.4271 38.8218 17.6457 38.782 17.904 38.5034C20.3481 36.056 22.7923 33.6086 25.2365 31.1612C25.3159 31.0617 25.3954 30.9423 25.5147 30.803ZM22.8917 28.1964C22.8122 28.077 22.7526 27.9775 22.6731 27.8979C22.4744 27.699 22.2756 27.5 22.0769 27.301C21.6199 26.8434 21.6 26.8434 21.1231 27.3209C18.8777 29.5694 16.6521 31.7979 14.4066 34.0463C13.4727 34.9815 13.4727 35.1606 14.4265 36.0958C14.6848 36.3545 14.8836 36.3346 15.1419 36.0958C17.6258 33.6086 20.1097 31.1214 22.5936 28.6342C22.7128 28.4949 22.7923 28.3357 22.8917 28.1964Z" fill="#FF3864"/>
<path d="M103.41 12.6763C101.622 17.5313 99.4358 22.1277 95.6205 25.8685C95.7994 25.9481 95.9186 26.0277 96.018 26.0476C97.1109 26.3062 98.2038 26.545 99.2967 26.8037C99.9922 26.9827 100.688 27.1021 101.184 26.4057C101.284 26.2664 101.304 26.0874 101.423 25.968C101.562 25.8486 101.781 25.7093 101.94 25.7292C102.059 25.7491 102.178 25.9879 102.277 26.147C102.297 26.1868 102.277 26.2465 102.297 26.2863C102.357 28.5149 102.436 30.7633 102.496 32.9919C102.496 33.1112 102.496 33.2306 102.496 33.3301C102.476 33.6087 102.556 33.9469 102.158 33.9867C101.781 34.0464 101.661 33.7679 101.502 33.4893C101.045 32.6735 100.648 31.8378 100.072 31.1215C98.7999 29.5098 97.2102 28.3159 95.1834 27.7986C94.0308 27.5001 92.9379 27.6195 91.7854 27.9577C90.7521 28.2562 89.9572 28.7934 89.3214 29.5893C88.1688 31.0021 87.533 32.6536 87.2349 34.4245C86.5593 38.225 86.8772 41.9458 88.2086 45.5871C88.8842 47.4575 89.8976 49.109 91.4873 50.3626C92.8386 51.4171 94.8853 51.9544 96.5744 51.0988C96.9122 50.9197 97.0711 50.7207 97.0711 50.3228C97.0513 47.8554 97.0711 45.3881 97.0513 42.9208C97.0513 42.0254 96.5346 41.3887 95.8391 40.9907C95.243 40.6525 94.5674 40.4933 93.8917 40.2744C93.5937 40.1749 93.2757 40.155 93.2956 39.7571C93.2956 39.3193 93.6135 39.2596 93.9514 39.2795C95.6205 39.3392 97.2897 39.4387 98.9589 39.4387C100.648 39.4387 102.337 39.3591 104.026 39.3193C104.463 39.2994 104.92 39.2596 105.357 39.2994C105.516 39.3193 105.775 39.5382 105.775 39.6576C105.775 39.8367 105.636 40.0754 105.477 40.1749C105.258 40.3142 104.96 40.3142 104.722 40.4137C103.788 40.8714 103.311 41.6474 103.331 42.7019C103.35 44.632 103.37 46.582 103.43 48.5121C103.45 49.2682 103.132 49.8054 102.575 50.2631C100.588 51.835 98.2833 52.6508 95.859 53.2079C93.8917 53.6457 91.8251 53.6059 89.8778 53.3273C86.4003 52.8697 83.6581 51.0192 81.8299 47.935C80.6376 45.9254 80.0614 43.7366 79.8627 41.4285C79.6043 38.5035 79.9421 35.6781 81.2536 33.0118C82.2869 30.9026 83.7972 29.2312 85.7644 27.9577C85.983 27.8185 86.2016 27.6792 86.4798 27.4802C86.3407 27.3807 86.2413 27.2812 86.142 27.2215C83.4991 25.9083 81.4524 23.9185 79.7434 21.5308C78.9088 20.3568 78.114 19.163 77.3986 17.9094C76.7031 16.7155 76.9217 15.8997 78.0146 15.0441C78.6306 14.5666 79.2864 14.1487 79.8825 13.6513C80.5979 13.0544 81.3331 12.4773 81.9293 11.7809C83.5388 9.89062 83.2805 6.90596 81.4126 5.27435C80.5582 4.53814 79.5845 4.39885 78.5313 4.8565C76.9217 5.59271 75.7891 6.84627 74.8551 8.2988C74.6564 8.59727 74.4974 8.93553 74.3186 9.25389C73.8218 10.0498 73.7423 10.9054 73.7622 11.8207C73.7821 15.7405 73.7821 19.6803 73.7622 23.6001C73.7622 24.4159 73.941 25.1323 74.716 25.5302C75.1134 25.7292 75.5903 25.8287 76.0275 25.9481C76.3057 26.0078 76.564 26.0874 76.5243 26.4455C76.4846 26.8037 76.2262 26.9032 75.9282 26.8833C74.5173 26.8435 73.1263 26.7838 71.7155 26.7838C69.4501 26.7838 67.1848 26.8435 64.9195 26.8634C64.7009 26.8634 64.3631 26.744 64.2836 26.5848C64.1445 26.3261 64.2637 26.0476 64.6413 25.968C65.1381 25.8486 65.6547 25.7491 66.1118 25.57C66.9662 25.2318 67.4233 24.6149 67.4233 23.6598C67.4233 17.6109 67.4233 11.562 67.4233 5.51312C67.4233 3.94121 66.2509 2.52847 64.7208 2.17031C64.5618 2.13051 64.3631 2.13051 64.2439 2.03103C64.1048 1.89174 63.9657 1.67287 63.9855 1.51368C63.9855 1.3744 64.224 1.25501 64.3631 1.15553C64.4227 1.11573 64.5221 1.13563 64.6016 1.13563C66.5489 1.17542 68.4963 1.19532 70.4636 1.23512C71.2385 1.25501 71.9539 1.47389 72.5699 1.97133C73.325 2.60806 73.643 3.42387 73.6628 4.37896C73.6827 5.13507 73.6628 5.89118 73.6628 6.64729C73.7026 6.66719 73.7423 6.68709 73.7821 6.68709C73.8615 6.5876 73.9609 6.48811 74.0404 6.38862C74.9942 5.21466 75.8884 3.9611 76.9416 2.86673C78.1537 1.59328 79.5845 0.59839 81.353 0.220334C83.519 -0.237313 85.6054 -0.0383364 87.4336 1.3545C89.222 2.72745 89.7585 5.55292 88.7054 7.84116C87.9502 9.51256 86.7778 10.786 85.2875 11.8207C84.7112 12.2187 84.135 12.6166 83.5786 13.0345C82.744 13.6513 82.585 14.4273 83.0619 15.3426C84.0754 17.3523 85.3272 19.163 86.8971 20.7548C87.9304 21.7894 89.0432 22.7445 90.4938 23.1823C92.302 23.7195 93.9514 23.3813 95.4417 22.2073C97.2102 20.7946 98.5019 18.9839 99.4756 16.9742C100.489 14.9247 101.363 12.8156 102.277 10.7064C102.377 10.4876 102.317 10.1493 102.218 9.93042C101.184 8.02024 100.131 6.12995 99.0583 4.23967C98.2634 2.84683 96.9917 2.15041 95.4814 1.79225C95.3026 1.75246 95.1039 1.71266 95.0045 1.59328C94.9052 1.47389 94.8456 1.25501 94.8853 1.11573C94.9052 0.996344 95.1039 0.896856 95.243 0.817265C95.3622 0.77747 95.5013 0.797367 95.6404 0.797367C97.8064 0.797367 99.9723 0.817265 102.138 0.797367C103.609 0.797367 104.761 1.4142 105.516 2.62796C106.272 3.82182 106.907 5.07537 107.563 6.32893C109.65 10.2886 111.716 14.2482 113.783 18.2079C114.697 19.939 115.591 21.6701 116.485 23.4012C117.201 24.794 118.333 25.6098 119.844 25.9282C120.162 25.9879 120.46 26.0476 120.42 26.4455C120.38 26.8236 120.062 26.8435 119.784 26.8435C119.565 26.8435 119.347 26.8634 119.148 26.8435C118.83 26.8236 118.631 26.9032 118.492 27.2414C118.413 27.4205 118.174 27.5598 117.996 27.6394C117.658 27.7787 117.3 27.8185 116.942 27.9378C116.068 28.2363 115.611 28.8332 115.611 29.7684C115.611 33.4296 115.532 37.0908 115.631 40.752C115.69 42.9805 116.088 45.1693 117.439 47.0595C118.771 48.9299 120.599 49.686 122.864 49.4672C125.944 49.1488 127.633 47.2585 128.527 44.433C128.964 43.0203 129.084 41.5678 129.104 40.1152C129.143 37.1107 129.064 34.1061 129.143 31.1215C129.183 29.4302 128.09 28.3756 126.779 27.898C126.58 27.8185 126.361 27.7787 126.163 27.719C125.745 27.6195 125.288 27.5797 125.348 26.943C125.348 26.8833 125.03 26.744 124.871 26.744C123.818 26.7639 122.765 26.8037 121.692 26.8236C121.553 26.8236 121.354 26.8634 121.254 26.8037C121.076 26.7042 120.877 26.545 120.837 26.3659C120.817 26.2465 121.036 26.0078 121.195 25.9282C121.453 25.8088 121.731 25.7889 122.01 25.7292C123.102 25.4904 123.778 24.6547 123.778 23.5404C123.778 17.1334 123.778 10.7462 123.778 4.33916C123.778 3.1453 123.341 2.54837 122.188 2.2101C121.87 2.11062 121.513 2.11062 121.235 1.99123C121.056 1.91164 120.857 1.67287 120.837 1.47389C120.817 1.33461 121.076 1.09583 121.235 1.03614C121.493 0.976447 121.791 1.03614 122.069 1.03614C123.003 1.07594 123.957 1.11573 124.891 1.13563C126.341 1.15553 127.792 1.15553 129.243 1.13563C130.276 1.11573 131.329 1.03614 132.362 0.996345C132.422 0.996345 132.502 0.976447 132.561 0.996345C132.879 1.05604 133.336 0.996345 133.356 1.49379C133.376 1.97133 132.959 1.97133 132.621 2.07082C132.104 2.23 131.568 2.38918 131.091 2.62796C130.634 2.86673 130.415 3.32438 130.415 3.86161C130.415 10.5671 130.415 17.2926 130.415 23.9981C130.415 24.8139 130.991 25.4506 131.945 25.7093C132.223 25.7889 132.541 25.8287 132.819 25.9282C132.978 25.9879 133.197 26.1073 133.257 26.2664C133.376 26.6047 133.594 26.6246 133.893 26.5649C134.23 26.5052 134.608 26.5052 134.668 26.943C134.727 27.3807 134.449 27.5399 134.051 27.6195C132.303 27.9577 131.309 29.1715 131.309 30.9424C131.309 34.3051 131.349 37.6678 131.289 41.0305C131.25 43.5973 130.793 46.1044 129.561 48.4126C128.309 50.7207 126.461 52.3125 123.897 52.9692C123.182 53.1482 122.427 53.2079 121.692 53.2477C120.758 53.2875 119.844 53.2875 118.91 53.2477C115.253 53.0885 112.531 51.3574 110.782 48.1539C109.53 45.8856 109.093 43.3785 109.053 40.8117C108.994 37.051 108.974 33.2903 108.954 29.5297C108.954 28.8332 108.656 28.3358 108.04 28.0572C107.543 27.8384 107.007 27.7389 106.49 27.5598C106.331 27.52 106.152 27.4603 106.073 27.3608C105.795 27.0225 106.212 25.9481 106.629 25.8486C107.106 25.7292 107.603 25.6695 108.08 25.5103C108.378 25.4108 108.656 25.2517 108.895 25.0527C109.491 24.595 109.59 24.1971 109.252 23.5404C108.06 21.1527 106.828 18.7849 105.616 16.4171C105.02 15.2431 104.443 14.0691 103.847 12.9151C103.788 12.7957 103.708 12.6564 103.649 12.537C103.509 12.6962 103.45 12.6763 103.41 12.6763Z" fill="#FF3864"/>
<path d="M146.451 4.59761C146.511 4.47823 146.55 4.35884 146.63 4.23946C148.16 2.20989 150.187 0.936436 152.631 0.438993C156.744 -0.396711 160.262 1.05582 162.626 4.79659C163.997 6.96544 164.514 9.39296 164.613 11.9399C164.713 14.646 164.196 17.2128 163.063 19.6602C162.249 21.4311 161.076 22.9234 159.566 24.177C158.255 25.2514 156.864 26.1667 155.194 26.6045C155.194 26.6443 155.214 26.704 155.214 26.7438C155.572 26.7836 155.949 26.8433 156.307 26.8433C158.811 26.8234 161.295 26.7637 163.799 26.7438C164.156 26.7438 164.653 26.6045 164.693 27.1815C164.713 27.6989 164.256 27.679 163.878 27.7585C162.348 28.0769 161.732 28.6539 161.752 30.1264C161.772 36.6528 161.752 43.1992 161.752 49.7256C161.752 50.4817 161.772 50.5414 162.527 50.5016C164.315 50.422 166.124 50.5215 167.852 50.1634C170.614 49.6062 172.323 47.7358 173.059 45.0099C173.118 44.8109 173.118 44.592 173.237 44.4527C173.337 44.2935 173.595 44.0946 173.714 44.1344C173.893 44.1941 174.052 44.4129 174.132 44.592C174.211 44.7711 174.171 44.99 174.152 45.1889C174.092 46.4226 174.092 47.6762 173.933 48.9098C173.675 51.0389 172.721 52.1531 170.356 52.3919C167.515 52.6705 164.673 52.6307 161.831 52.5511C159.01 52.4516 156.208 52.5113 153.386 52.5113C153.168 52.5113 152.949 52.5113 152.75 52.5113C152.432 52.4914 152.134 52.4317 152.114 52.0337C152.114 51.6557 152.353 51.4965 152.71 51.4368C153.187 51.3373 153.684 51.2179 154.141 51.0389C154.876 50.7404 155.214 50.1634 155.194 49.3476C155.175 46.2236 155.175 43.0798 155.194 39.9558C155.214 37.6278 155.274 35.3197 155.274 32.9916C155.274 31.8575 155.214 30.7432 155.175 29.609C155.155 28.9922 154.876 28.4948 154.32 28.2361C153.843 28.0172 153.326 27.9177 152.83 27.7386C152.631 27.6591 152.452 27.5198 152.273 27.4004C152.075 27.281 151.896 27.082 151.697 27.0621C150.982 27.0223 150.266 27.0422 149.571 27.0621C149.412 27.0621 149.154 27.1218 149.094 27.2412C148.875 27.6591 148.498 27.6989 148.1 27.7784C147.663 27.8779 147.206 28.0371 146.809 28.2759C146.272 28.5942 146.034 29.0917 146.034 29.7284C146.034 36.2947 146.034 42.8609 146.034 49.4272C146.034 50.5215 146.868 51.397 148.021 51.5164C148.16 51.5363 148.319 51.4766 148.418 51.5562C148.597 51.7154 148.756 51.9144 148.915 52.0934C148.736 52.2327 148.577 52.4914 148.398 52.4914C147.623 52.5312 146.848 52.4914 146.073 52.4914C143.848 52.4914 141.602 52.4914 139.377 52.4914C138.582 52.4914 137.787 52.5113 136.992 52.5113C136.694 52.5113 136.456 52.4118 136.436 52.0735C136.436 51.7353 136.655 51.596 136.972 51.5164C137.41 51.4169 137.847 51.3572 138.264 51.198C139.019 50.8797 139.417 50.3027 139.417 49.447C139.417 42.8609 139.417 36.2748 139.417 29.7085C139.417 28.8529 138.94 28.3555 138.224 28.0371C137.827 27.8779 137.41 27.7983 136.972 27.7386C136.615 27.679 136.436 27.5397 136.416 27.1815C136.356 26.2861 136.436 26.1667 137.29 25.9678C137.489 25.928 137.688 25.8882 137.867 25.8285C139.019 25.3907 139.715 24.9928 139.715 23.4009C139.655 17.4913 139.655 11.5618 139.715 5.65219C139.735 4.15986 138.622 2.54815 136.972 2.24968C136.655 2.18999 136.277 2.1502 136.337 1.67265C136.396 1.17521 136.774 1.215 137.112 1.19511C139.019 1.19511 140.927 1.19511 142.815 1.19511C143.093 1.19511 143.371 1.2349 143.649 1.2747C145 1.47367 146.034 2.22979 146.153 4.00068C146.173 4.15986 146.252 4.33894 146.292 4.49813C146.332 4.53792 146.391 4.57772 146.451 4.59761ZM146.213 15.9194C146.213 16.2179 146.213 16.5163 146.213 16.8148C146.213 19.0433 146.213 21.252 146.213 23.4805C146.213 24.356 146.511 24.7341 147.345 24.9132C148.935 25.2713 150.525 25.2116 152.114 24.8535C154.082 24.3958 155.632 23.3214 156.645 21.5704C157.579 19.9785 157.996 18.2275 158.115 16.397C158.274 13.9296 157.917 11.5419 156.943 9.25368C156.208 7.52258 155.254 5.95066 153.605 4.91598C152.194 4.02058 150.703 3.8415 149.213 4.55782C147.345 5.43332 146.193 6.84606 146.213 9.0547C146.232 11.3429 146.213 13.6312 146.213 15.9194Z" fill="#FF3864"/>
<path d="M184.624 30.2262C185.16 29.6491 185.597 29.1517 186.074 28.6742C187.664 27.0823 189.611 26.1471 191.817 25.8885C195.911 25.4308 199.05 27.0425 201.157 30.5843C202.289 32.4945 202.786 34.6037 202.945 36.8322C203.124 39.0608 202.865 41.2296 202.19 43.3388C201.474 45.5872 200.282 47.5372 198.573 49.1887C196.248 51.4172 193.526 52.5912 190.307 52.6111C189.075 52.631 187.823 52.7106 186.591 52.6907C184.485 52.631 182.358 52.4718 180.252 52.432C178.623 52.3922 176.973 52.4917 175.344 52.5116C175.165 52.5116 174.907 52.3325 174.847 52.1733C174.748 51.8749 174.966 51.6759 175.264 51.6361C175.423 51.6162 175.602 51.5963 175.741 51.5366C176.198 51.3774 176.675 51.2183 177.112 50.9994C177.808 50.6611 178.086 50.0443 178.066 49.2882C178.046 48.0147 178.066 46.7413 178.066 45.4678C178.066 40.8118 178.066 36.1557 178.066 31.4996C178.066 29.4502 177.073 28.1966 175.066 27.7788C174.748 27.7191 174.589 27.5599 174.609 27.2415C174.628 26.8834 174.887 26.7839 175.205 26.7839C176.794 26.7839 178.384 26.7839 179.974 26.7839C180.61 26.7839 181.226 26.8038 181.862 26.8834C183.531 27.1022 184.345 27.9578 184.524 29.6292C184.584 29.7884 184.604 29.9476 184.624 30.2262ZM184.564 39.4587C184.604 39.4587 184.624 39.4587 184.663 39.4587C184.663 42.6821 184.663 45.9255 184.663 49.1489C184.663 49.9647 185.041 50.4025 185.856 50.5417C187.227 50.7805 188.578 50.8203 189.949 50.5417C191.797 50.1836 193.427 49.4275 194.559 47.8754C196.189 45.627 196.606 43.0403 196.546 40.3342C196.527 39.3791 196.387 38.424 196.169 37.4888C195.652 35.121 194.738 32.9522 192.95 31.2211C191.261 29.5894 189.095 29.2313 187.068 30.4053C185.498 31.3205 184.564 32.6935 184.564 34.5838C184.564 36.1955 184.564 37.8271 184.564 39.4587Z" fill="#FF3864"/>
</svg>
