<svg width="30" height="30" viewBox="0 0 30 30" fill="none" xmlns="http://www.w3.org/2000/svg">
<path d="M24.0876 6.6625C22.4251 5.8875 20.6251 5.325 18.7501 5C18.7337 4.99947 18.7174 5.00256 18.7022 5.00903C18.6871 5.01551 18.6736 5.02523 18.6626 5.0375C18.4376 5.45 18.1751 5.9875 18.0001 6.4C16.0114 6.1 13.9889 6.1 12.0001 6.4C11.8251 5.975 11.5626 5.45 11.3251 5.0375C11.3126 5.0125 11.2751 5 11.2376 5C9.36265 5.325 7.57515 5.8875 5.90015 6.6625C5.88765 6.6625 5.87515 6.675 5.86265 6.6875C2.46265 11.775 1.52515 16.725 1.98765 21.625C1.98765 21.65 2.00015 21.675 2.02515 21.6875C4.27515 23.3375 6.43765 24.3375 8.57515 25C8.61265 25.0125 8.65015 25 8.66265 24.975C9.16265 24.2875 9.61265 23.5625 10.0001 22.8C10.0251 22.75 10.0001 22.7 9.95015 22.6875C9.23765 22.4125 8.56265 22.0875 7.90015 21.7125C7.85015 21.6875 7.85015 21.6125 7.88765 21.575C8.02515 21.475 8.16265 21.3625 8.30015 21.2625C8.32515 21.2375 8.36265 21.2375 8.38765 21.25C12.6876 23.2125 17.3251 23.2125 21.5751 21.25C21.6001 21.2375 21.6376 21.2375 21.6626 21.2625C21.8001 21.375 21.9376 21.475 22.0751 21.5875C22.1251 21.625 22.1251 21.7 22.0626 21.725C21.4126 22.1125 20.7251 22.425 20.0126 22.7C19.9626 22.7125 19.9501 22.775 19.9626 22.8125C20.3626 23.575 20.8126 24.3 21.3001 24.9875C21.3376 25 21.3751 25.0125 21.4126 25C23.5626 24.3375 25.7251 23.3375 27.9751 21.6875C28.0001 21.675 28.0126 21.65 28.0126 21.625C28.5626 15.9625 27.1001 11.05 24.1376 6.6875C24.1251 6.675 24.1126 6.6625 24.0876 6.6625ZM10.6501 18.6375C9.36265 18.6375 8.28765 17.45 8.28765 15.9875C8.28765 14.525 9.33765 13.3375 10.6501 13.3375C11.9751 13.3375 13.0251 14.5375 13.0126 15.9875C13.0126 17.45 11.9626 18.6375 10.6501 18.6375ZM19.3626 18.6375C18.0751 18.6375 17.0001 17.45 17.0001 15.9875C17.0001 14.525 18.0501 13.3375 19.3626 13.3375C20.6876 13.3375 21.7376 14.5375 21.7251 15.9875C21.7251 17.45 20.6876 18.6375 19.3626 18.6375Z" fill="#747474"/>
</svg>
